<?xml version="1.0" encoding="UTF-8" standalone="no"?>
<!-- Created with Inkscape (http://www.inkscape.org/) -->

<svg
   xmlns:dc="http://purl.org/dc/elements/1.1/"
   xmlns:cc="http://creativecommons.org/ns#"
   xmlns:rdf="http://www.w3.org/1999/02/22-rdf-syntax-ns#"
   xmlns:svg="http://www.w3.org/2000/svg"
   xmlns="http://www.w3.org/2000/svg"
   xmlns:sodipodi="http://sodipodi.sourceforge.net/DTD/sodipodi-0.dtd"
   xmlns:inkscape="http://www.inkscape.org/namespaces/inkscape"
   width="210mm"
   height="297mm"
   id="svg2"
   version="1.1"
   inkscape:version="0.48.4 r9939"
   sodipodi:docname="circle.svg">
  <defs
     id="defs4" />
  <sodipodi:namedview
     id="base"
     pagecolor="#ffffff"
     bordercolor="#666666"
     borderopacity="1.0"
     inkscape:pageopacity="0.0"
     inkscape:pageshadow="2"
     inkscape:zoom="0.49497475"
     inkscape:cx="-11.860621"
     inkscape:cy="344.09539"
     inkscape:document-units="px"
     inkscape:current-layer="layer1"
     showgrid="false"
     inkscape:window-width="1600"
     inkscape:window-height="837"
     inkscape:window-x="-8"
     inkscape:window-y="-8"
     inkscape:window-maximized="1" />
  <metadata
     id="metadata7">
    <rdf:RDF>
      <cc:Work
         rdf:about="">
        <dc:format>image/svg+xml</dc:format>
        <dc:type
           rdf:resource="http://purl.org/dc/dcmitype/StillImage" />
        <dc:title />
      </cc:Work>
    </rdf:RDF>
  </metadata>
  <g
     inkscape:label="Calque 1"
     inkscape:groupmode="layer"
     id="layer1">
    <path
       style="fill:#4ebcc2;fill-opacity:1;fill-rule:nonzero;stroke:none"
       id="path3805"
       d="m 297.21487,267.55674 c -9.85095,4.33974 -20.08571,8.55381 -29.13524,14.45568 -2.15043,1.40246 8.94041,-4.85536 7.03547,-3.13418 -5.37033,4.85229 -11.89372,8.26245 -17.61607,12.69414 -6.13187,4.74883 -11.95119,9.88806 -17.92679,14.83209 -29.59323,26.76362 -54.38815,58.51052 -73.23416,93.68733 -3.4719,6.48044 -6.48454,13.19665 -9.72681,19.79498 -12.79556,28.81384 -21.06955,59.81751 -19.65324,91.57168 0.23449,5.25742 1.07279,10.47047 1.60919,15.70571 3.9677,21.5725 13.66118,41.2941 28.21378,57.73544 9.81815,11.09242 14.30823,13.71077 25.93207,22.73257 4.85615,2.9148 9.53367,6.15031 14.56845,8.74438 21.76537,11.21416 46.72663,16.73719 71.00697,18.64363 6.24514,0.49035 12.5226,0.3911 18.78391,0.58665 6.2644,-0.52615 12.56763,-0.70565 18.79321,-1.57844 24.44915,-3.42763 48.79722,-11.77524 70.804,-22.85378 5.237,-2.63638 10.24956,-5.69676 15.37434,-8.54515 -2.73294,1.16844 -9.96685,5.89451 -8.19882,3.50531 3.24239,-4.38154 8.80326,-6.4444 12.97229,-9.95585 3.88569,-3.27279 7.65828,-6.69854 11.16515,-10.37436 6.93918,-7.27349 12.62222,-14.99316 17.48848,-23.79325 2.47197,-4.47029 4.38108,-9.22944 6.57163,-13.84415 10.80718,-29.00227 14.93154,-60.39649 15.64105,-91.23991 0.15941,-6.92936 -0.12161,-13.86186 -0.18242,-20.79279 -2.0558,-33.48339 -9.68557,-67.08243 -24.90527,-97.17674 -2.80494,-5.54628 -6.22963,-10.75674 -9.34445,-16.13511 -13.11262,-19.03589 -29.77744,-35.31109 -50.77785,-45.43688 -14.07145,-6.78484 -19.64262,-7.37694 -34.796,-11.22988 -18.22324,-1.67574 -22.58611,-3.19635 -41.28455,-0.10488 -8.14301,1.3463 -16.03957,3.90092 -24.05936,5.85137 0,0 19.7892,-15.10526 19.7892,-15.10526 l 0,0 c 8.28205,-1.97771 16.43823,-4.58756 24.84615,-5.93314 19.14809,-3.06441 23.72349,-1.45513 42.33101,0.40048 15.24035,3.97701 21.30742,4.73271 35.46536,11.65835 21.35746,10.44743 38.12652,27.18895 51.23347,46.77239 3.12804,5.48232 6.56688,10.79864 9.38413,16.44697 15.1264,30.32707 22.85649,64.59981 25.1109,98.23845 0.12369,6.96119 0.46691,13.92194 0.37107,20.88357 -0.42639,30.97142 -4.24302,62.31487 -14.26407,91.70078 -5.41894,12.05008 -6.56727,16.17842 -14.19613,26.97074 -17.72659,25.07728 -45.11964,40.22749 -71.0151,55.34156 -5.14426,2.77311 -10.18051,5.75669 -15.43279,8.31934 -22.18995,10.82674 -46.64825,18.8884 -71.19182,22.01288 -6.29518,0.80139 -12.66005,0.89951 -18.99008,1.34927 -6.28778,-0.27444 -12.59412,-0.2679 -18.86333,-0.82331 -24.61984,-2.18115 -49.96711,-7.75299 -71.99118,-19.3093 -5.09021,-2.67089 -9.79075,-6.02637 -14.68612,-9.03955 -11.43694,-9.00683 -16.63492,-12.27604 -26.36338,-23.25399 -14.87113,-16.78112 -24.96966,-36.91128 -29.12304,-58.93146 -0.52257,-5.35729 -1.36883,-10.69283 -1.56771,-16.07187 -1.19454,-32.30887 7.05977,-63.80298 20.17373,-93.09892 3.26885,-6.67477 6.30333,-13.4695 9.80655,-20.02429 18.86948,-35.30637 43.5739,-67.30869 72.92294,-94.51453 11.02974,-9.34587 22.33574,-19.57172 34.53495,-27.47664 12.58484,-8.15482 25.5516,-15.70782 38.46961,-23.32387 10.17743,-6.0003 20.84281,-11.66387 32.08435,-15.39986 0,0 -23.95763,17.8656 -23.95763,17.8656 z"
       inkscape:connector-curvature="0" />
  </g>
</svg>
