<?xml version="1.0" encoding="UTF-8" standalone="no"?>
<!-- Created with Inkscape (http://www.inkscape.org/) -->

<svg
   xmlns:dc="http://purl.org/dc/elements/1.1/"
   xmlns:cc="http://creativecommons.org/ns#"
   xmlns:rdf="http://www.w3.org/1999/02/22-rdf-syntax-ns#"
   xmlns:svg="http://www.w3.org/2000/svg"
   xmlns="http://www.w3.org/2000/svg"
   xmlns:sodipodi="http://sodipodi.sourceforge.net/DTD/sodipodi-0.dtd"
   xmlns:inkscape="http://www.inkscape.org/namespaces/inkscape"
   width="210mm"
   height="297mm"
   id="svg2"
   version="1.1"
   inkscape:version="0.48.4 r9939"
   sodipodi:docname="cross.svg"
   inkscape:export-filename="C:\obeo\dev\od 9.1\runtime-PlayWithSirius\org.obeonetwork.dsl.tictactoe.design\images\cross.png"
   inkscape:export-xdpi="29.49"
   inkscape:export-ydpi="29.49">
  <defs
     id="defs4" />
  <sodipodi:namedview
     id="base"
     pagecolor="#ffffff"
     bordercolor="#666666"
     borderopacity="1.0"
     inkscape:pageopacity="0.0"
     inkscape:pageshadow="2"
     inkscape:zoom="1.4"
     inkscape:cx="421.10458"
     inkscape:cy="582.21394"
     inkscape:document-units="px"
     inkscape:current-layer="layer1"
     showgrid="false"
     inkscape:window-width="1600"
     inkscape:window-height="837"
     inkscape:window-x="-8"
     inkscape:window-y="-8"
     inkscape:window-maximized="1" />
  <metadata
     id="metadata7">
    <rdf:RDF>
      <cc:Work
         rdf:about="">
        <dc:format>image/svg+xml</dc:format>
        <dc:type
           rdf:resource="http://purl.org/dc/dcmitype/StillImage" />
        <dc:title />
      </cc:Work>
    </rdf:RDF>
  </metadata>
  <g
     inkscape:label="Calque 1"
     inkscape:groupmode="layer"
     id="layer1">
    <path
       style="fill:#4ebcc2;fill-opacity:1;fill-rule:nonzero;stroke:none"
       id="path3791"
       d="m 232.93724,262.2563 c 29.45843,29.16209 33.16595,47.41099 58.95942,79.77608 43.30572,54.71058 92.60603,119.07885 132.49334,176.3147 20.60893,29.26952 46.82341,66.20547 64.49511,97.29879 l -44.41498,12.73659 0,0 C 428.0193,596.71127 410.50303,565.59548 390.13529,536.2324 350.9877,478.5454 310.15339,422.00146 265.75998,368.20037 239.12911,336.34725 212.52011,303.66297 179.51432,278.09462 z"
       inkscape:connector-curvature="0"
       sodipodi:nodetypes="cccccccccc" />
    <path
       style="fill:#4ebcc2;fill-opacity:1;fill-rule:nonzero;stroke:none"
       id="path3803"
       d="m 452.60073,236.41347 c -11.93873,18.70303 -28.28132,61.85732 -35.06885,82.80355 -16.57479,25.53764 -27.37428,52.97686 -45.60348,77.37135 -12.99587,17.3912 -13.92917,19.60754 -27.43009,36.76044 -47.51162,60.49479 -113.49903,101.92028 -163.47588,160.37363 l -19.58606,8.29533 0,0 c 15.03679,-58.05488 56.402,-101.9515 103.05185,-162.24887 13.14878,-16.95818 35.8244,-38.4106 48.45889,-55.60827 17.66126,-24.03995 51.27112,-55.05043 67.1698,-80.28081 11.0872,-18.29906 28.88596,-36.78342 39.17449,-55.54426 z"
       inkscape:connector-curvature="0"
       sodipodi:nodetypes="ccscccccsccc" />
  </g>
</svg>
